<?xml version="1.0" encoding="UTF-8"?>
<svg id="Layer_1" data-name="Layer 1" xmlns="http://www.w3.org/2000/svg" viewBox="0 0 57 25">
  <g>
    <path d="M10.02,8.1c-.91-.42-1.84-.81-2.75-1.24-.69-.32-1.33-.72-1.77-1.37-.7-1.04-.63-2.64.67-3.49.79-.52,1.67-.68,2.59-.62.62.04,1.21.21,1.69.63.62.54.82,1.26.85,2.05,0,.2.11.3.3.23.24-.09.49-.17.71-.3.63-.37.8-.88.57-1.57-.22-.64-.69-1.06-1.27-1.37-.95-.5-1.98-.62-3.45-.63-.6,0-1.58.15-2.51.57-1.06.48-1.89,1.2-2.26,2.34-.58,1.76-.05,3.72,1.64,4.89.72.5,1.52.81,2.31,1.16.95.42,1.93.78,2.77,1.39.67.48,1.2,1.07,1.3,1.94.14,1.25-.43,2.41-1.73,2.93-.85.34-1.73.41-2.62.27-.97-.16-1.79-.57-2.34-1.43-.36-.56-.5-1.18-.53-1.84,0-.25-.07-.3-.32-.25-.04,0-.08.01-.12.02-1.05.21-1.49.84-1.27,1.9.17.79.7,1.33,1.35,1.74.86.54,1.81.78,2.81.87,1.24.12,2.47.06,3.65-.4,1.73-.67,2.9-1.84,3.09-3.77.13-1.22-.21-2.29-1.1-3.16-.67-.64-1.46-1.1-2.29-1.48Z"/>
    <path d="M45.08,14.58c-.06-.39-.1-.78-.1-1.18-.01-1.55,0-3.11-.01-4.66,0-.53-.05-1.07-.15-1.6-.16-.93-.67-1.61-1.57-1.98-.56-.23-1.15-.25-1.74-.2-1.25.11-2.35.56-3.24,1.46-.18.17-.33.37-.51.57-.03-.21-.04-.4-.07-.58-.15-1.08-.9-1.6-1.92-1.33-.65.17-1.19.53-1.68.97-.06.06-.07.18-.11.28.18.02.3.04.43.05.63.05,1.07.37,1.24.98.11.39.18.8.19,1.21.03,1.82.02,3.64.02,5.47,0,.33-.02.66-.07.99-.09.57-.37,1-.97,1.13-.19.04-.38.08-.57.11v.37h5.37c0-.07,0-.14,0-.21,0-.05,0-.11-.01-.18-.11,0-.19,0-.26-.02-.39-.05-.76-.14-1.05-.43-.35-.35-.45-.81-.45-1.28,0-2.24,0-4.48,0-6.72,0-.1.08-.24.16-.31.88-.76,1.93-1.06,3.08-1.06.89,0,1.51.45,1.75,1.27.1.33.15.68.17,1.02.03.81.03,1.62.04,2.44.02,1.31,0,2.62.07,3.92.04.84.47,1.54,1.48,1.73.85.16,1.58-.11,2.24-.62.08-.06.12-.19.19-.31-.29-.03-.5-.05-.71-.08-.68-.12-1.12-.55-1.22-1.22Z"/>
    <path d="M54.23,15.33c-.52.18-1.06.27-1.62.24-.62-.03-1.07-.33-1.2-.94-.12-.55-.18-1.12-.19-1.68-.02-2.13,0-4.26,0-6.39v-.28h2.78v-1.04h-2.75v-2.89c-.13,0-.22.01-.31,0-.24-.04-.33.06-.41.29-.18.5-.38,1-.62,1.47-.37.74-.98,1.22-1.78,1.43-.18.05-.36.1-.53.15v.59h1.69v.32c0,2.12,0,4.24,0,6.36,0,.57,0,1.14.05,1.7.06.7.29,1.34.88,1.78.36.27.78.37,1.21.42,1.32.15,2.33-.4,3.14-1.39-.07-.18-.16-.21-.32-.15Z"/>
    <path d="M31.09,15.13c-.09-.36-.11-.73-.11-1.1-.01-2.41,0-4.82-.01-7.24,0-.21-.03-.42-.08-.63-.19-.85-.84-1.27-1.7-1.13-.75.12-1.37.49-1.92.99-.07.06-.08.18-.14.3.14.01.2.01.27.02.92.09,1.33.44,1.49,1.35.08.44.13.89.13,1.34.02,1.66,0,3.33,0,4.99,0,.28-.02.57-.05.85-.08.78-.51,1.24-1.25,1.35-.1.01-.2.02-.29.03v.39h5.39v-.39c-.11,0-.2-.01-.3-.02-.77-.05-1.28-.41-1.44-1.09Z"/>
    <path d="M29.68,2.74c.77,0,1.32-.54,1.33-1.32.01-.77-.56-1.38-1.3-1.38-.79,0-1.38.58-1.39,1.36,0,.78.57,1.34,1.36,1.34Z"/>
    <path d="M25.58,15.81c-.7-.07-1.14-.42-1.31-1.07-.07-.26-.12-.54-.12-.81,0-1.2.02-2.4.02-3.6,0-.87.02-1.73-.03-2.6-.08-1.28-.94-2.28-2.16-2.62-.87-.24-1.75-.3-2.64-.18-.95.12-1.81.47-2.47,1.2-.43.47-.71,1.01-.86,1.63.13.05.25.1.35.14.11-.13.2-.25.3-.36,1.01-1.13,2.93-1.45,4.23-.96.61.23,1.02.66,1.16,1.29.08.34.12.7.14,1.05.02.5,0,1.01,0,1.49-.92,0-1.8-.03-2.67,0-.82.04-1.62.2-2.39.51-1.27.52-1.93,1.43-1.93,2.76,0,1.3.57,2.26,1.74,2.85.72.36,1.5.46,2.29.4.89-.06,1.69-.36,2.37-.94.29-.24.53-.55.79-.82.02.06.03.15.06.23.21.66.52,1.25,1.28,1.4.88.17,1.63-.11,2.27-.71.05-.05.05-.15.09-.24-.19-.02-.35-.04-.5-.05ZM22.1,14.52c-.68.78-1.56,1.07-2.57,1.05-.63-.01-1.21-.17-1.68-.62-.79-.76-.91-2.58.67-3.23,1.07-.44,2.19-.49,3.32-.44.11,0,.22.02.34.04,0,.08,0,.15.01.22.01.9.02,1.8.03,2.7,0,.1-.04.22-.1.29Z"/>
  </g>
  <g>
    <path d="M14.18,17.27h3.94v.78h-1.56v4.97h-.82v-4.97h-1.56v-.78Z"/>
    <path d="M21.48,19.85c-.09-.02-.18-.03-.3-.03-.4,0-.83.28-1.04.65v2.56h-.78v-3.86h.76v.44c.19-.26.59-.53,1.16-.53.08,0,.21,0,.3.02l-.09.75Z"/>
    <path d="M24.84,19.07c1.14,0,2,.86,2,2.01s-.85,2.01-2,2.01-2-.86-2-2.01.85-2.01,2-2.01ZM24.84,22.36c.71,0,1.22-.57,1.22-1.27s-.5-1.27-1.22-1.27-1.22.57-1.22,1.27.5,1.27,1.22,1.27Z"/>
    <path d="M29.51,24.99h-.78v-5.83h.76v.35c.35-.3.77-.44,1.21-.44.36,0,.68.09.95.25.58.35.99.99.99,1.77s-.4,1.41-.99,1.76c-.26.16-.62.25-.97.25-.46,0-.85-.15-1.17-.42v2.31ZM29.51,21.81c.26.35.67.55,1.06.55.75,0,1.28-.58,1.28-1.27s-.49-1.27-1.24-1.27c-.47,0-.86.24-1.1.55v1.45Z"/>
    <path d="M34.95,21.25c.04.65.58,1.17,1.25,1.17.58,0,.89-.28,1.11-.53l.51.48c-.29.37-.84.72-1.63.72-1.13,0-2-.85-2-2.01s.79-2.01,1.88-2.01,1.86.87,1.86,2.01c0,.03,0,.09,0,.16h-2.97ZM35.02,20.59h2.1c-.12-.49-.56-.84-1.02-.84-.5,0-.95.34-1.08.84Z"/>
    <path d="M41.57,19.85h-2v-.7h3.08v.49l-2.13,2.67h2.29v.7h-3.37v-.49l2.12-2.67Z"/>
  </g>
</svg>